<mxfile host="app.diagrams.net" modified="2023-10-18T00:16:00.523Z" agent="Mozilla/5.0 (Windows NT 10.0; Win64; x64) AppleWebKit/537.36 (KHTML, like Gecko) Chrome/118.0.0.0 Safari/537.36" etag="OOWxJhEiM8WmInSgDeIA" version="22.0.4" type="device" pages="2">
  <diagram name="DER" id="3VF9krF5NGssMemn9tXK">
    <mxGraphModel dx="1050" dy="1703" grid="1" gridSize="10" guides="1" tooltips="1" connect="1" arrows="1" fold="1" page="1" pageScale="1" pageWidth="827" pageHeight="1169" math="0" shadow="0">
      <root>
        <mxCell id="0" />
        <mxCell id="1" parent="0" />
        <mxCell id="ve8Hl0xsGc82we1905tT-17" value="" style="edgeStyle=orthogonalEdgeStyle;rounded=0;orthogonalLoop=1;jettySize=auto;html=1;endArrow=none;endFill=0;labelBackgroundColor=none;strokeColor=#182E3E;fontColor=default;" edge="1" parent="1" source="ve8Hl0xsGc82we1905tT-1" target="ve8Hl0xsGc82we1905tT-8">
          <mxGeometry relative="1" as="geometry" />
        </mxCell>
        <mxCell id="ve8Hl0xsGc82we1905tT-21" value="" style="edgeStyle=orthogonalEdgeStyle;rounded=0;orthogonalLoop=1;jettySize=auto;html=1;endArrow=none;endFill=0;labelBackgroundColor=none;strokeColor=#182E3E;fontColor=default;" edge="1" parent="1" source="ve8Hl0xsGc82we1905tT-1" target="ve8Hl0xsGc82we1905tT-20">
          <mxGeometry relative="1" as="geometry" />
        </mxCell>
        <mxCell id="ve8Hl0xsGc82we1905tT-1" value="Usuarios" style="rounded=0;whiteSpace=wrap;html=1;labelBackgroundColor=none;fillColor=#F5AB50;strokeColor=#909090;fontColor=#1A1A1A;" vertex="1" parent="1">
          <mxGeometry x="80" y="83" width="120" height="60" as="geometry" />
        </mxCell>
        <mxCell id="ve8Hl0xsGc82we1905tT-2" value="HardSkills" style="rounded=0;whiteSpace=wrap;html=1;labelBackgroundColor=none;fillColor=#F5AB50;strokeColor=#909090;fontColor=#1A1A1A;" vertex="1" parent="1">
          <mxGeometry x="300" y="-60" width="120" height="60" as="geometry" />
        </mxCell>
        <mxCell id="ve8Hl0xsGc82we1905tT-3" value="SoftSkills" style="rounded=0;whiteSpace=wrap;html=1;labelBackgroundColor=none;fillColor=#F5AB50;strokeColor=#909090;fontColor=#1A1A1A;" vertex="1" parent="1">
          <mxGeometry x="520" y="83" width="120" height="60" as="geometry" />
        </mxCell>
        <mxCell id="ve8Hl0xsGc82we1905tT-25" value="" style="edgeStyle=orthogonalEdgeStyle;rounded=0;orthogonalLoop=1;jettySize=auto;html=1;endArrow=none;endFill=0;labelBackgroundColor=none;strokeColor=#182E3E;fontColor=default;" edge="1" parent="1" source="ve8Hl0xsGc82we1905tT-4" target="ve8Hl0xsGc82we1905tT-23">
          <mxGeometry relative="1" as="geometry" />
        </mxCell>
        <mxCell id="ve8Hl0xsGc82we1905tT-27" value="" style="edgeStyle=orthogonalEdgeStyle;rounded=0;orthogonalLoop=1;jettySize=auto;html=1;endArrow=none;endFill=0;labelBackgroundColor=none;strokeColor=#182E3E;fontColor=default;" edge="1" parent="1" source="ve8Hl0xsGc82we1905tT-4" target="ve8Hl0xsGc82we1905tT-24">
          <mxGeometry relative="1" as="geometry" />
        </mxCell>
        <mxCell id="ve8Hl0xsGc82we1905tT-4" value="Demanda" style="rounded=0;whiteSpace=wrap;html=1;labelBackgroundColor=none;fillColor=#F5AB50;strokeColor=#909090;fontColor=#1A1A1A;" vertex="1" parent="1">
          <mxGeometry x="80" y="350" width="120" height="60" as="geometry" />
        </mxCell>
        <mxCell id="ve8Hl0xsGc82we1905tT-5" value="Cliente" style="rounded=0;whiteSpace=wrap;html=1;labelBackgroundColor=none;fillColor=#F5AB50;strokeColor=#909090;fontColor=#1A1A1A;" vertex="1" parent="1">
          <mxGeometry x="80" y="650" width="120" height="60" as="geometry" />
        </mxCell>
        <mxCell id="ve8Hl0xsGc82we1905tT-6" value="Segmento" style="rounded=0;whiteSpace=wrap;html=1;labelBackgroundColor=none;fillColor=#F5AB50;strokeColor=#909090;fontColor=#1A1A1A;" vertex="1" parent="1">
          <mxGeometry x="480" y="350" width="120" height="60" as="geometry" />
        </mxCell>
        <mxCell id="ve8Hl0xsGc82we1905tT-18" value="" style="edgeStyle=orthogonalEdgeStyle;rounded=0;orthogonalLoop=1;jettySize=auto;html=1;endArrow=none;endFill=0;labelBackgroundColor=none;strokeColor=#182E3E;fontColor=default;" edge="1" parent="1" source="ve8Hl0xsGc82we1905tT-8" target="ve8Hl0xsGc82we1905tT-2">
          <mxGeometry relative="1" as="geometry" />
        </mxCell>
        <mxCell id="ve8Hl0xsGc82we1905tT-19" value="" style="edgeStyle=orthogonalEdgeStyle;rounded=0;orthogonalLoop=1;jettySize=auto;html=1;endArrow=none;endFill=0;labelBackgroundColor=none;strokeColor=#182E3E;fontColor=default;" edge="1" parent="1" source="ve8Hl0xsGc82we1905tT-8" target="ve8Hl0xsGc82we1905tT-3">
          <mxGeometry relative="1" as="geometry" />
        </mxCell>
        <mxCell id="ve8Hl0xsGc82we1905tT-8" value="Possui" style="html=1;whiteSpace=wrap;aspect=fixed;shape=isoRectangle;labelBackgroundColor=none;fillColor=#F5AB50;strokeColor=#909090;fontColor=#1A1A1A;" vertex="1" parent="1">
          <mxGeometry x="280" y="65" width="160" height="96" as="geometry" />
        </mxCell>
        <mxCell id="ve8Hl0xsGc82we1905tT-22" value="" style="edgeStyle=orthogonalEdgeStyle;rounded=0;orthogonalLoop=1;jettySize=auto;html=1;endArrow=none;endFill=0;labelBackgroundColor=none;strokeColor=#182E3E;fontColor=default;" edge="1" parent="1" source="ve8Hl0xsGc82we1905tT-20" target="ve8Hl0xsGc82we1905tT-4">
          <mxGeometry relative="1" as="geometry" />
        </mxCell>
        <mxCell id="ve8Hl0xsGc82we1905tT-20" value="Possui" style="html=1;whiteSpace=wrap;aspect=fixed;shape=isoRectangle;labelBackgroundColor=none;fillColor=#F5AB50;strokeColor=#909090;fontColor=#1A1A1A;" vertex="1" parent="1">
          <mxGeometry x="60" y="200" width="160" height="96" as="geometry" />
        </mxCell>
        <mxCell id="ve8Hl0xsGc82we1905tT-26" value="" style="edgeStyle=orthogonalEdgeStyle;rounded=0;orthogonalLoop=1;jettySize=auto;html=1;endArrow=none;endFill=0;labelBackgroundColor=none;strokeColor=#182E3E;fontColor=default;" edge="1" parent="1" source="ve8Hl0xsGc82we1905tT-23" target="ve8Hl0xsGc82we1905tT-6">
          <mxGeometry relative="1" as="geometry" />
        </mxCell>
        <mxCell id="ve8Hl0xsGc82we1905tT-23" value="Tem" style="html=1;whiteSpace=wrap;aspect=fixed;shape=isoRectangle;labelBackgroundColor=none;fillColor=#F5AB50;strokeColor=#909090;fontColor=#1A1A1A;" vertex="1" parent="1">
          <mxGeometry x="270" y="332" width="160" height="96" as="geometry" />
        </mxCell>
        <mxCell id="ve8Hl0xsGc82we1905tT-28" value="" style="edgeStyle=orthogonalEdgeStyle;rounded=0;orthogonalLoop=1;jettySize=auto;html=1;endArrow=none;endFill=0;labelBackgroundColor=none;strokeColor=#182E3E;fontColor=default;" edge="1" parent="1" source="ve8Hl0xsGc82we1905tT-24" target="ve8Hl0xsGc82we1905tT-5">
          <mxGeometry relative="1" as="geometry" />
        </mxCell>
        <mxCell id="ve8Hl0xsGc82we1905tT-24" value="Tem" style="html=1;whiteSpace=wrap;aspect=fixed;shape=isoRectangle;labelBackgroundColor=none;fillColor=#F5AB50;strokeColor=#909090;fontColor=#1A1A1A;" vertex="1" parent="1">
          <mxGeometry x="60" y="480" width="160" height="96" as="geometry" />
        </mxCell>
      </root>
    </mxGraphModel>
  </diagram>
  <diagram name="MF" id="PJUrLUZ_5vsqz6GMrP_r">
    <mxGraphModel dx="1877" dy="1703" grid="1" gridSize="10" guides="1" tooltips="1" connect="1" arrows="1" fold="1" page="1" pageScale="1" pageWidth="827" pageHeight="1169" math="0" shadow="0">
      <root>
        <mxCell id="2_BJ-WFRn-Au3hLawCN7-0" />
        <mxCell id="2_BJ-WFRn-Au3hLawCN7-1" parent="2_BJ-WFRn-Au3hLawCN7-0" />
        <mxCell id="vqr1CVYGPzqRc5KKQp99-0" value="HardSkill" style="shape=table;startSize=30;container=1;collapsible=1;childLayout=tableLayout;fixedRows=1;rowLines=0;fontStyle=1;align=center;resizeLast=1;html=1;strokeColor=#909090;fontColor=#1A1A1A;fillColor=#F5AB50;" vertex="1" parent="2_BJ-WFRn-Au3hLawCN7-1">
          <mxGeometry x="680" y="40" width="220" height="90" as="geometry" />
        </mxCell>
        <mxCell id="vqr1CVYGPzqRc5KKQp99-1" value="" style="shape=tableRow;horizontal=0;startSize=0;swimlaneHead=0;swimlaneBody=0;fillColor=none;collapsible=0;dropTarget=0;points=[[0,0.5],[1,0.5]];portConstraint=eastwest;top=0;left=0;right=0;bottom=1;strokeColor=#909090;fontColor=#1A1A1A;" vertex="1" parent="vqr1CVYGPzqRc5KKQp99-0">
          <mxGeometry y="30" width="220" height="30" as="geometry" />
        </mxCell>
        <mxCell id="vqr1CVYGPzqRc5KKQp99-2" value="PK" style="shape=partialRectangle;connectable=0;fillColor=none;top=0;left=0;bottom=0;right=0;fontStyle=1;overflow=hidden;whiteSpace=wrap;html=1;strokeColor=#909090;fontColor=#1A1A1A;" vertex="1" parent="vqr1CVYGPzqRc5KKQp99-1">
          <mxGeometry width="30" height="30" as="geometry">
            <mxRectangle width="30" height="30" as="alternateBounds" />
          </mxGeometry>
        </mxCell>
        <mxCell id="vqr1CVYGPzqRc5KKQp99-3" value="Id_hardskill" style="shape=partialRectangle;connectable=0;fillColor=none;top=0;left=0;bottom=0;right=0;align=left;spacingLeft=6;fontStyle=5;overflow=hidden;whiteSpace=wrap;html=1;strokeColor=#909090;fontColor=#1A1A1A;" vertex="1" parent="vqr1CVYGPzqRc5KKQp99-1">
          <mxGeometry x="30" width="190" height="30" as="geometry">
            <mxRectangle width="190" height="30" as="alternateBounds" />
          </mxGeometry>
        </mxCell>
        <mxCell id="vqr1CVYGPzqRc5KKQp99-4" value="" style="shape=tableRow;horizontal=0;startSize=0;swimlaneHead=0;swimlaneBody=0;fillColor=none;collapsible=0;dropTarget=0;points=[[0,0.5],[1,0.5]];portConstraint=eastwest;top=0;left=0;right=0;bottom=0;strokeColor=#909090;fontColor=#1A1A1A;" vertex="1" parent="vqr1CVYGPzqRc5KKQp99-0">
          <mxGeometry y="60" width="220" height="30" as="geometry" />
        </mxCell>
        <mxCell id="vqr1CVYGPzqRc5KKQp99-5" value="" style="shape=partialRectangle;connectable=0;fillColor=none;top=0;left=0;bottom=0;right=0;editable=1;overflow=hidden;whiteSpace=wrap;html=1;strokeColor=#909090;fontColor=#1A1A1A;" vertex="1" parent="vqr1CVYGPzqRc5KKQp99-4">
          <mxGeometry width="30" height="30" as="geometry">
            <mxRectangle width="30" height="30" as="alternateBounds" />
          </mxGeometry>
        </mxCell>
        <mxCell id="vqr1CVYGPzqRc5KKQp99-6" value="nome: varchar(150), NOT NULL" style="shape=partialRectangle;connectable=0;fillColor=none;top=0;left=0;bottom=0;right=0;align=left;spacingLeft=6;overflow=hidden;whiteSpace=wrap;html=1;strokeColor=#909090;fontColor=#1A1A1A;" vertex="1" parent="vqr1CVYGPzqRc5KKQp99-4">
          <mxGeometry x="30" width="190" height="30" as="geometry">
            <mxRectangle width="190" height="30" as="alternateBounds" />
          </mxGeometry>
        </mxCell>
        <mxCell id="vqr1CVYGPzqRc5KKQp99-13" value="SoftSkill" style="shape=table;startSize=30;container=1;collapsible=1;childLayout=tableLayout;fixedRows=1;rowLines=0;fontStyle=1;align=center;resizeLast=1;html=1;strokeColor=#909090;fontColor=#1A1A1A;fillColor=#F5AB50;" vertex="1" parent="2_BJ-WFRn-Au3hLawCN7-1">
          <mxGeometry x="-60" y="280" width="220" height="90" as="geometry" />
        </mxCell>
        <mxCell id="vqr1CVYGPzqRc5KKQp99-14" value="" style="shape=tableRow;horizontal=0;startSize=0;swimlaneHead=0;swimlaneBody=0;fillColor=none;collapsible=0;dropTarget=0;points=[[0,0.5],[1,0.5]];portConstraint=eastwest;top=0;left=0;right=0;bottom=1;strokeColor=#909090;fontColor=#1A1A1A;" vertex="1" parent="vqr1CVYGPzqRc5KKQp99-13">
          <mxGeometry y="30" width="220" height="30" as="geometry" />
        </mxCell>
        <mxCell id="vqr1CVYGPzqRc5KKQp99-15" value="PK" style="shape=partialRectangle;connectable=0;fillColor=none;top=0;left=0;bottom=0;right=0;fontStyle=1;overflow=hidden;whiteSpace=wrap;html=1;strokeColor=#909090;fontColor=#1A1A1A;" vertex="1" parent="vqr1CVYGPzqRc5KKQp99-14">
          <mxGeometry width="30" height="30" as="geometry">
            <mxRectangle width="30" height="30" as="alternateBounds" />
          </mxGeometry>
        </mxCell>
        <mxCell id="vqr1CVYGPzqRc5KKQp99-16" value="Id_softskill" style="shape=partialRectangle;connectable=0;fillColor=none;top=0;left=0;bottom=0;right=0;align=left;spacingLeft=6;fontStyle=5;overflow=hidden;whiteSpace=wrap;html=1;strokeColor=#909090;fontColor=#1A1A1A;" vertex="1" parent="vqr1CVYGPzqRc5KKQp99-14">
          <mxGeometry x="30" width="190" height="30" as="geometry">
            <mxRectangle width="190" height="30" as="alternateBounds" />
          </mxGeometry>
        </mxCell>
        <mxCell id="vqr1CVYGPzqRc5KKQp99-17" value="" style="shape=tableRow;horizontal=0;startSize=0;swimlaneHead=0;swimlaneBody=0;fillColor=none;collapsible=0;dropTarget=0;points=[[0,0.5],[1,0.5]];portConstraint=eastwest;top=0;left=0;right=0;bottom=0;strokeColor=#909090;fontColor=#1A1A1A;" vertex="1" parent="vqr1CVYGPzqRc5KKQp99-13">
          <mxGeometry y="60" width="220" height="30" as="geometry" />
        </mxCell>
        <mxCell id="vqr1CVYGPzqRc5KKQp99-18" value="" style="shape=partialRectangle;connectable=0;fillColor=none;top=0;left=0;bottom=0;right=0;editable=1;overflow=hidden;whiteSpace=wrap;html=1;strokeColor=#909090;fontColor=#1A1A1A;" vertex="1" parent="vqr1CVYGPzqRc5KKQp99-17">
          <mxGeometry width="30" height="30" as="geometry">
            <mxRectangle width="30" height="30" as="alternateBounds" />
          </mxGeometry>
        </mxCell>
        <mxCell id="vqr1CVYGPzqRc5KKQp99-19" value="nome: varchar(150), NOT NULL" style="shape=partialRectangle;connectable=0;fillColor=none;top=0;left=0;bottom=0;right=0;align=left;spacingLeft=6;overflow=hidden;whiteSpace=wrap;html=1;strokeColor=#909090;fontColor=#1A1A1A;" vertex="1" parent="vqr1CVYGPzqRc5KKQp99-17">
          <mxGeometry x="30" width="190" height="30" as="geometry">
            <mxRectangle width="190" height="30" as="alternateBounds" />
          </mxGeometry>
        </mxCell>
        <mxCell id="vqr1CVYGPzqRc5KKQp99-27" value="Usuario" style="shape=table;startSize=30;container=1;collapsible=1;childLayout=tableLayout;fixedRows=1;rowLines=0;fontStyle=1;align=center;resizeLast=1;html=1;whiteSpace=wrap;strokeColor=#909090;fontColor=#1A1A1A;fillColor=#F5AB50;" vertex="1" parent="2_BJ-WFRn-Au3hLawCN7-1">
          <mxGeometry x="280" y="120" width="310" height="510" as="geometry" />
        </mxCell>
        <mxCell id="vqr1CVYGPzqRc5KKQp99-28" value="" style="shape=tableRow;horizontal=0;startSize=0;swimlaneHead=0;swimlaneBody=0;fillColor=none;collapsible=0;dropTarget=0;points=[[0,0.5],[1,0.5]];portConstraint=eastwest;top=0;left=0;right=0;bottom=0;html=1;strokeColor=#909090;fontColor=#1A1A1A;" vertex="1" parent="vqr1CVYGPzqRc5KKQp99-27">
          <mxGeometry y="30" width="310" height="30" as="geometry" />
        </mxCell>
        <mxCell id="vqr1CVYGPzqRc5KKQp99-29" value="PK" style="shape=partialRectangle;connectable=0;fillColor=none;top=0;left=0;bottom=0;right=0;fontStyle=1;overflow=hidden;html=1;whiteSpace=wrap;strokeColor=#909090;fontColor=#1A1A1A;" vertex="1" parent="vqr1CVYGPzqRc5KKQp99-28">
          <mxGeometry width="60" height="30" as="geometry">
            <mxRectangle width="60" height="30" as="alternateBounds" />
          </mxGeometry>
        </mxCell>
        <mxCell id="vqr1CVYGPzqRc5KKQp99-30" value="Id_usuario" style="shape=partialRectangle;connectable=0;fillColor=none;top=0;left=0;bottom=0;right=0;align=left;spacingLeft=6;fontStyle=5;overflow=hidden;html=1;whiteSpace=wrap;strokeColor=#909090;fontColor=#1A1A1A;" vertex="1" parent="vqr1CVYGPzqRc5KKQp99-28">
          <mxGeometry x="60" width="250" height="30" as="geometry">
            <mxRectangle width="250" height="30" as="alternateBounds" />
          </mxGeometry>
        </mxCell>
        <mxCell id="vqr1CVYGPzqRc5KKQp99-43" value="" style="shape=tableRow;horizontal=0;startSize=0;swimlaneHead=0;swimlaneBody=0;fillColor=none;collapsible=0;dropTarget=0;points=[[0,0.5],[1,0.5]];portConstraint=eastwest;top=0;left=0;right=0;bottom=0;html=1;strokeColor=#909090;fontColor=#1A1A1A;" vertex="1" parent="vqr1CVYGPzqRc5KKQp99-27">
          <mxGeometry y="60" width="310" height="30" as="geometry" />
        </mxCell>
        <mxCell id="vqr1CVYGPzqRc5KKQp99-44" value="FK" style="shape=partialRectangle;connectable=0;fillColor=none;top=0;left=0;bottom=0;right=0;fontStyle=1;overflow=hidden;html=1;whiteSpace=wrap;strokeColor=#909090;fontColor=#1A1A1A;" vertex="1" parent="vqr1CVYGPzqRc5KKQp99-43">
          <mxGeometry width="60" height="30" as="geometry">
            <mxRectangle width="60" height="30" as="alternateBounds" />
          </mxGeometry>
        </mxCell>
        <mxCell id="vqr1CVYGPzqRc5KKQp99-45" value="Id_hardskill" style="shape=partialRectangle;connectable=0;fillColor=none;top=0;left=0;bottom=0;right=0;align=left;spacingLeft=6;fontStyle=5;overflow=hidden;html=1;whiteSpace=wrap;strokeColor=#909090;fontColor=#1A1A1A;" vertex="1" parent="vqr1CVYGPzqRc5KKQp99-43">
          <mxGeometry x="60" width="250" height="30" as="geometry">
            <mxRectangle width="250" height="30" as="alternateBounds" />
          </mxGeometry>
        </mxCell>
        <mxCell id="vqr1CVYGPzqRc5KKQp99-136" value="" style="shape=tableRow;horizontal=0;startSize=0;swimlaneHead=0;swimlaneBody=0;fillColor=none;collapsible=0;dropTarget=0;points=[[0,0.5],[1,0.5]];portConstraint=eastwest;top=0;left=0;right=0;bottom=0;html=1;strokeColor=#909090;fontColor=#1A1A1A;" vertex="1" parent="vqr1CVYGPzqRc5KKQp99-27">
          <mxGeometry y="90" width="310" height="30" as="geometry" />
        </mxCell>
        <mxCell id="vqr1CVYGPzqRc5KKQp99-137" value="FK2" style="shape=partialRectangle;connectable=0;fillColor=none;top=0;left=0;bottom=0;right=0;fontStyle=1;overflow=hidden;html=1;whiteSpace=wrap;strokeColor=#909090;fontColor=#1A1A1A;" vertex="1" parent="vqr1CVYGPzqRc5KKQp99-136">
          <mxGeometry width="60" height="30" as="geometry">
            <mxRectangle width="60" height="30" as="alternateBounds" />
          </mxGeometry>
        </mxCell>
        <mxCell id="vqr1CVYGPzqRc5KKQp99-138" value="Id_demanda" style="shape=partialRectangle;connectable=0;fillColor=none;top=0;left=0;bottom=0;right=0;align=left;spacingLeft=6;fontStyle=5;overflow=hidden;html=1;whiteSpace=wrap;strokeColor=#909090;fontColor=#1A1A1A;" vertex="1" parent="vqr1CVYGPzqRc5KKQp99-136">
          <mxGeometry x="60" width="250" height="30" as="geometry">
            <mxRectangle width="250" height="30" as="alternateBounds" />
          </mxGeometry>
        </mxCell>
        <mxCell id="vqr1CVYGPzqRc5KKQp99-31" value="" style="shape=tableRow;horizontal=0;startSize=0;swimlaneHead=0;swimlaneBody=0;fillColor=none;collapsible=0;dropTarget=0;points=[[0,0.5],[1,0.5]];portConstraint=eastwest;top=0;left=0;right=0;bottom=1;html=1;strokeColor=#909090;fontColor=#1A1A1A;" vertex="1" parent="vqr1CVYGPzqRc5KKQp99-27">
          <mxGeometry y="120" width="310" height="30" as="geometry" />
        </mxCell>
        <mxCell id="vqr1CVYGPzqRc5KKQp99-32" value="FK3" style="shape=partialRectangle;connectable=0;fillColor=none;top=0;left=0;bottom=0;right=0;fontStyle=1;overflow=hidden;html=1;whiteSpace=wrap;strokeColor=#909090;fontColor=#1A1A1A;" vertex="1" parent="vqr1CVYGPzqRc5KKQp99-31">
          <mxGeometry width="60" height="30" as="geometry">
            <mxRectangle width="60" height="30" as="alternateBounds" />
          </mxGeometry>
        </mxCell>
        <mxCell id="vqr1CVYGPzqRc5KKQp99-33" value="Id_softskill" style="shape=partialRectangle;connectable=0;fillColor=none;top=0;left=0;bottom=0;right=0;align=left;spacingLeft=6;fontStyle=5;overflow=hidden;html=1;whiteSpace=wrap;strokeColor=#909090;fontColor=#1A1A1A;" vertex="1" parent="vqr1CVYGPzqRc5KKQp99-31">
          <mxGeometry x="60" width="250" height="30" as="geometry">
            <mxRectangle width="250" height="30" as="alternateBounds" />
          </mxGeometry>
        </mxCell>
        <mxCell id="vqr1CVYGPzqRc5KKQp99-34" value="" style="shape=tableRow;horizontal=0;startSize=0;swimlaneHead=0;swimlaneBody=0;fillColor=none;collapsible=0;dropTarget=0;points=[[0,0.5],[1,0.5]];portConstraint=eastwest;top=0;left=0;right=0;bottom=0;html=1;strokeColor=#909090;fontColor=#1A1A1A;" vertex="1" parent="vqr1CVYGPzqRc5KKQp99-27">
          <mxGeometry y="150" width="310" height="30" as="geometry" />
        </mxCell>
        <mxCell id="vqr1CVYGPzqRc5KKQp99-35" value="" style="shape=partialRectangle;connectable=0;fillColor=none;top=0;left=0;bottom=0;right=0;editable=1;overflow=hidden;html=1;whiteSpace=wrap;strokeColor=#909090;fontColor=#1A1A1A;" vertex="1" parent="vqr1CVYGPzqRc5KKQp99-34">
          <mxGeometry width="60" height="30" as="geometry">
            <mxRectangle width="60" height="30" as="alternateBounds" />
          </mxGeometry>
        </mxCell>
        <mxCell id="vqr1CVYGPzqRc5KKQp99-36" value="nome: varchar(150), NOT NULL" style="shape=partialRectangle;connectable=0;fillColor=none;top=0;left=0;bottom=0;right=0;align=left;spacingLeft=6;overflow=hidden;html=1;whiteSpace=wrap;strokeColor=#909090;fontColor=#1A1A1A;" vertex="1" parent="vqr1CVYGPzqRc5KKQp99-34">
          <mxGeometry x="60" width="250" height="30" as="geometry">
            <mxRectangle width="250" height="30" as="alternateBounds" />
          </mxGeometry>
        </mxCell>
        <mxCell id="vqr1CVYGPzqRc5KKQp99-37" value="" style="shape=tableRow;horizontal=0;startSize=0;swimlaneHead=0;swimlaneBody=0;fillColor=none;collapsible=0;dropTarget=0;points=[[0,0.5],[1,0.5]];portConstraint=eastwest;top=0;left=0;right=0;bottom=0;html=1;strokeColor=#909090;fontColor=#1A1A1A;" vertex="1" parent="vqr1CVYGPzqRc5KKQp99-27">
          <mxGeometry y="180" width="310" height="30" as="geometry" />
        </mxCell>
        <mxCell id="vqr1CVYGPzqRc5KKQp99-38" value="" style="shape=partialRectangle;connectable=0;fillColor=none;top=0;left=0;bottom=0;right=0;editable=1;overflow=hidden;html=1;whiteSpace=wrap;strokeColor=#909090;fontColor=#1A1A1A;" vertex="1" parent="vqr1CVYGPzqRc5KKQp99-37">
          <mxGeometry width="60" height="30" as="geometry">
            <mxRectangle width="60" height="30" as="alternateBounds" />
          </mxGeometry>
        </mxCell>
        <mxCell id="vqr1CVYGPzqRc5KKQp99-39" value="tipoUsuario: varchar(150), NOT NULL" style="shape=partialRectangle;connectable=0;fillColor=none;top=0;left=0;bottom=0;right=0;align=left;spacingLeft=6;overflow=hidden;html=1;whiteSpace=wrap;strokeColor=#909090;fontColor=#1A1A1A;" vertex="1" parent="vqr1CVYGPzqRc5KKQp99-37">
          <mxGeometry x="60" width="250" height="30" as="geometry">
            <mxRectangle width="250" height="30" as="alternateBounds" />
          </mxGeometry>
        </mxCell>
        <mxCell id="vqr1CVYGPzqRc5KKQp99-46" value="" style="shape=tableRow;horizontal=0;startSize=0;swimlaneHead=0;swimlaneBody=0;fillColor=none;collapsible=0;dropTarget=0;points=[[0,0.5],[1,0.5]];portConstraint=eastwest;top=0;left=0;right=0;bottom=0;html=1;strokeColor=#909090;fontColor=#1A1A1A;" vertex="1" parent="vqr1CVYGPzqRc5KKQp99-27">
          <mxGeometry y="210" width="310" height="30" as="geometry" />
        </mxCell>
        <mxCell id="vqr1CVYGPzqRc5KKQp99-47" value="" style="shape=partialRectangle;connectable=0;fillColor=none;top=0;left=0;bottom=0;right=0;editable=1;overflow=hidden;html=1;whiteSpace=wrap;strokeColor=#909090;fontColor=#1A1A1A;" vertex="1" parent="vqr1CVYGPzqRc5KKQp99-46">
          <mxGeometry width="60" height="30" as="geometry">
            <mxRectangle width="60" height="30" as="alternateBounds" />
          </mxGeometry>
        </mxCell>
        <mxCell id="vqr1CVYGPzqRc5KKQp99-48" value="sobrenome: varchar(150), NOT NULL" style="shape=partialRectangle;connectable=0;fillColor=none;top=0;left=0;bottom=0;right=0;align=left;spacingLeft=6;overflow=hidden;html=1;whiteSpace=wrap;strokeColor=#909090;fontColor=#1A1A1A;" vertex="1" parent="vqr1CVYGPzqRc5KKQp99-46">
          <mxGeometry x="60" width="250" height="30" as="geometry">
            <mxRectangle width="250" height="30" as="alternateBounds" />
          </mxGeometry>
        </mxCell>
        <mxCell id="vqr1CVYGPzqRc5KKQp99-52" value="" style="shape=tableRow;horizontal=0;startSize=0;swimlaneHead=0;swimlaneBody=0;fillColor=none;collapsible=0;dropTarget=0;points=[[0,0.5],[1,0.5]];portConstraint=eastwest;top=0;left=0;right=0;bottom=0;html=1;strokeColor=#909090;fontColor=#1A1A1A;" vertex="1" parent="vqr1CVYGPzqRc5KKQp99-27">
          <mxGeometry y="240" width="310" height="30" as="geometry" />
        </mxCell>
        <mxCell id="vqr1CVYGPzqRc5KKQp99-53" value="" style="shape=partialRectangle;connectable=0;fillColor=none;top=0;left=0;bottom=0;right=0;editable=1;overflow=hidden;html=1;whiteSpace=wrap;strokeColor=#909090;fontColor=#1A1A1A;" vertex="1" parent="vqr1CVYGPzqRc5KKQp99-52">
          <mxGeometry width="60" height="30" as="geometry">
            <mxRectangle width="60" height="30" as="alternateBounds" />
          </mxGeometry>
        </mxCell>
        <mxCell id="vqr1CVYGPzqRc5KKQp99-54" value="telefone: varchar(20), NOT NULL" style="shape=partialRectangle;connectable=0;fillColor=none;top=0;left=0;bottom=0;right=0;align=left;spacingLeft=6;overflow=hidden;html=1;whiteSpace=wrap;strokeColor=#909090;fontColor=#1A1A1A;" vertex="1" parent="vqr1CVYGPzqRc5KKQp99-52">
          <mxGeometry x="60" width="250" height="30" as="geometry">
            <mxRectangle width="250" height="30" as="alternateBounds" />
          </mxGeometry>
        </mxCell>
        <mxCell id="vqr1CVYGPzqRc5KKQp99-55" value="" style="shape=tableRow;horizontal=0;startSize=0;swimlaneHead=0;swimlaneBody=0;fillColor=none;collapsible=0;dropTarget=0;points=[[0,0.5],[1,0.5]];portConstraint=eastwest;top=0;left=0;right=0;bottom=0;html=1;strokeColor=#909090;fontColor=#1A1A1A;" vertex="1" parent="vqr1CVYGPzqRc5KKQp99-27">
          <mxGeometry y="270" width="310" height="30" as="geometry" />
        </mxCell>
        <mxCell id="vqr1CVYGPzqRc5KKQp99-56" value="" style="shape=partialRectangle;connectable=0;fillColor=none;top=0;left=0;bottom=0;right=0;editable=1;overflow=hidden;html=1;whiteSpace=wrap;strokeColor=#909090;fontColor=#1A1A1A;" vertex="1" parent="vqr1CVYGPzqRc5KKQp99-55">
          <mxGeometry width="60" height="30" as="geometry">
            <mxRectangle width="60" height="30" as="alternateBounds" />
          </mxGeometry>
        </mxCell>
        <mxCell id="vqr1CVYGPzqRc5KKQp99-57" value="email: varchar(100), NOT NULL" style="shape=partialRectangle;connectable=0;fillColor=none;top=0;left=0;bottom=0;right=0;align=left;spacingLeft=6;overflow=hidden;html=1;whiteSpace=wrap;strokeColor=#909090;fontColor=#1A1A1A;" vertex="1" parent="vqr1CVYGPzqRc5KKQp99-55">
          <mxGeometry x="60" width="250" height="30" as="geometry">
            <mxRectangle width="250" height="30" as="alternateBounds" />
          </mxGeometry>
        </mxCell>
        <mxCell id="vqr1CVYGPzqRc5KKQp99-58" value="" style="shape=tableRow;horizontal=0;startSize=0;swimlaneHead=0;swimlaneBody=0;fillColor=none;collapsible=0;dropTarget=0;points=[[0,0.5],[1,0.5]];portConstraint=eastwest;top=0;left=0;right=0;bottom=0;html=1;strokeColor=#909090;fontColor=#1A1A1A;" vertex="1" parent="vqr1CVYGPzqRc5KKQp99-27">
          <mxGeometry y="300" width="310" height="30" as="geometry" />
        </mxCell>
        <mxCell id="vqr1CVYGPzqRc5KKQp99-59" value="" style="shape=partialRectangle;connectable=0;fillColor=none;top=0;left=0;bottom=0;right=0;editable=1;overflow=hidden;html=1;whiteSpace=wrap;strokeColor=#909090;fontColor=#1A1A1A;" vertex="1" parent="vqr1CVYGPzqRc5KKQp99-58">
          <mxGeometry width="60" height="30" as="geometry">
            <mxRectangle width="60" height="30" as="alternateBounds" />
          </mxGeometry>
        </mxCell>
        <mxCell id="vqr1CVYGPzqRc5KKQp99-60" value="senha: varchar(60), NOT NULL" style="shape=partialRectangle;connectable=0;fillColor=none;top=0;left=0;bottom=0;right=0;align=left;spacingLeft=6;overflow=hidden;html=1;whiteSpace=wrap;strokeColor=#909090;fontColor=#1A1A1A;" vertex="1" parent="vqr1CVYGPzqRc5KKQp99-58">
          <mxGeometry x="60" width="250" height="30" as="geometry">
            <mxRectangle width="250" height="30" as="alternateBounds" />
          </mxGeometry>
        </mxCell>
        <mxCell id="vqr1CVYGPzqRc5KKQp99-61" value="" style="shape=tableRow;horizontal=0;startSize=0;swimlaneHead=0;swimlaneBody=0;fillColor=none;collapsible=0;dropTarget=0;points=[[0,0.5],[1,0.5]];portConstraint=eastwest;top=0;left=0;right=0;bottom=0;html=1;strokeColor=#909090;fontColor=#1A1A1A;" vertex="1" parent="vqr1CVYGPzqRc5KKQp99-27">
          <mxGeometry y="330" width="310" height="30" as="geometry" />
        </mxCell>
        <mxCell id="vqr1CVYGPzqRc5KKQp99-62" value="" style="shape=partialRectangle;connectable=0;fillColor=none;top=0;left=0;bottom=0;right=0;editable=1;overflow=hidden;html=1;whiteSpace=wrap;strokeColor=#909090;fontColor=#1A1A1A;" vertex="1" parent="vqr1CVYGPzqRc5KKQp99-61">
          <mxGeometry width="60" height="30" as="geometry">
            <mxRectangle width="60" height="30" as="alternateBounds" />
          </mxGeometry>
        </mxCell>
        <mxCell id="vqr1CVYGPzqRc5KKQp99-63" value="dataCadastro: date, NOT NULL" style="shape=partialRectangle;connectable=0;fillColor=none;top=0;left=0;bottom=0;right=0;align=left;spacingLeft=6;overflow=hidden;html=1;whiteSpace=wrap;strokeColor=#909090;fontColor=#1A1A1A;" vertex="1" parent="vqr1CVYGPzqRc5KKQp99-61">
          <mxGeometry x="60" width="250" height="30" as="geometry">
            <mxRectangle width="250" height="30" as="alternateBounds" />
          </mxGeometry>
        </mxCell>
        <mxCell id="vqr1CVYGPzqRc5KKQp99-64" value="" style="shape=tableRow;horizontal=0;startSize=0;swimlaneHead=0;swimlaneBody=0;fillColor=none;collapsible=0;dropTarget=0;points=[[0,0.5],[1,0.5]];portConstraint=eastwest;top=0;left=0;right=0;bottom=0;html=1;strokeColor=#909090;fontColor=#1A1A1A;" vertex="1" parent="vqr1CVYGPzqRc5KKQp99-27">
          <mxGeometry y="360" width="310" height="30" as="geometry" />
        </mxCell>
        <mxCell id="vqr1CVYGPzqRc5KKQp99-65" value="" style="shape=partialRectangle;connectable=0;fillColor=none;top=0;left=0;bottom=0;right=0;editable=1;overflow=hidden;html=1;whiteSpace=wrap;strokeColor=#909090;fontColor=#1A1A1A;" vertex="1" parent="vqr1CVYGPzqRc5KKQp99-64">
          <mxGeometry width="60" height="30" as="geometry">
            <mxRectangle width="60" height="30" as="alternateBounds" />
          </mxGeometry>
        </mxCell>
        <mxCell id="vqr1CVYGPzqRc5KKQp99-66" value="dataFerias: date, NOT NULL" style="shape=partialRectangle;connectable=0;fillColor=none;top=0;left=0;bottom=0;right=0;align=left;spacingLeft=6;overflow=hidden;html=1;whiteSpace=wrap;strokeColor=#909090;fontColor=#1A1A1A;" vertex="1" parent="vqr1CVYGPzqRc5KKQp99-64">
          <mxGeometry x="60" width="250" height="30" as="geometry">
            <mxRectangle width="250" height="30" as="alternateBounds" />
          </mxGeometry>
        </mxCell>
        <mxCell id="vqr1CVYGPzqRc5KKQp99-67" value="" style="shape=tableRow;horizontal=0;startSize=0;swimlaneHead=0;swimlaneBody=0;fillColor=none;collapsible=0;dropTarget=0;points=[[0,0.5],[1,0.5]];portConstraint=eastwest;top=0;left=0;right=0;bottom=0;html=1;strokeColor=#909090;fontColor=#1A1A1A;" vertex="1" parent="vqr1CVYGPzqRc5KKQp99-27">
          <mxGeometry y="390" width="310" height="30" as="geometry" />
        </mxCell>
        <mxCell id="vqr1CVYGPzqRc5KKQp99-68" value="" style="shape=partialRectangle;connectable=0;fillColor=none;top=0;left=0;bottom=0;right=0;editable=1;overflow=hidden;html=1;whiteSpace=wrap;strokeColor=#909090;fontColor=#1A1A1A;" vertex="1" parent="vqr1CVYGPzqRc5KKQp99-67">
          <mxGeometry width="60" height="30" as="geometry">
            <mxRectangle width="60" height="30" as="alternateBounds" />
          </mxGeometry>
        </mxCell>
        <mxCell id="vqr1CVYGPzqRc5KKQp99-69" value="designacao: varchar(150), NOT NULL" style="shape=partialRectangle;connectable=0;fillColor=none;top=0;left=0;bottom=0;right=0;align=left;spacingLeft=6;overflow=hidden;html=1;whiteSpace=wrap;strokeColor=#909090;fontColor=#1A1A1A;" vertex="1" parent="vqr1CVYGPzqRc5KKQp99-67">
          <mxGeometry x="60" width="250" height="30" as="geometry">
            <mxRectangle width="250" height="30" as="alternateBounds" />
          </mxGeometry>
        </mxCell>
        <mxCell id="vqr1CVYGPzqRc5KKQp99-70" value="" style="shape=tableRow;horizontal=0;startSize=0;swimlaneHead=0;swimlaneBody=0;fillColor=none;collapsible=0;dropTarget=0;points=[[0,0.5],[1,0.5]];portConstraint=eastwest;top=0;left=0;right=0;bottom=0;html=1;strokeColor=#909090;fontColor=#1A1A1A;" vertex="1" parent="vqr1CVYGPzqRc5KKQp99-27">
          <mxGeometry y="420" width="310" height="30" as="geometry" />
        </mxCell>
        <mxCell id="vqr1CVYGPzqRc5KKQp99-71" value="" style="shape=partialRectangle;connectable=0;fillColor=none;top=0;left=0;bottom=0;right=0;editable=1;overflow=hidden;html=1;whiteSpace=wrap;strokeColor=#909090;fontColor=#1A1A1A;" vertex="1" parent="vqr1CVYGPzqRc5KKQp99-70">
          <mxGeometry width="60" height="30" as="geometry">
            <mxRectangle width="60" height="30" as="alternateBounds" />
          </mxGeometry>
        </mxCell>
        <mxCell id="vqr1CVYGPzqRc5KKQp99-72" value="cidade: varchar(50), NOT NULL" style="shape=partialRectangle;connectable=0;fillColor=none;top=0;left=0;bottom=0;right=0;align=left;spacingLeft=6;overflow=hidden;html=1;whiteSpace=wrap;strokeColor=#909090;fontColor=#1A1A1A;" vertex="1" parent="vqr1CVYGPzqRc5KKQp99-70">
          <mxGeometry x="60" width="250" height="30" as="geometry">
            <mxRectangle width="250" height="30" as="alternateBounds" />
          </mxGeometry>
        </mxCell>
        <mxCell id="vqr1CVYGPzqRc5KKQp99-73" value="" style="shape=tableRow;horizontal=0;startSize=0;swimlaneHead=0;swimlaneBody=0;fillColor=none;collapsible=0;dropTarget=0;points=[[0,0.5],[1,0.5]];portConstraint=eastwest;top=0;left=0;right=0;bottom=0;html=1;strokeColor=#909090;fontColor=#1A1A1A;" vertex="1" parent="vqr1CVYGPzqRc5KKQp99-27">
          <mxGeometry y="450" width="310" height="30" as="geometry" />
        </mxCell>
        <mxCell id="vqr1CVYGPzqRc5KKQp99-74" value="" style="shape=partialRectangle;connectable=0;fillColor=none;top=0;left=0;bottom=0;right=0;editable=1;overflow=hidden;html=1;whiteSpace=wrap;strokeColor=#909090;fontColor=#1A1A1A;" vertex="1" parent="vqr1CVYGPzqRc5KKQp99-73">
          <mxGeometry width="60" height="30" as="geometry">
            <mxRectangle width="60" height="30" as="alternateBounds" />
          </mxGeometry>
        </mxCell>
        <mxCell id="vqr1CVYGPzqRc5KKQp99-75" value="estado: varchar(50), NOT NULL" style="shape=partialRectangle;connectable=0;fillColor=none;top=0;left=0;bottom=0;right=0;align=left;spacingLeft=6;overflow=hidden;html=1;whiteSpace=wrap;strokeColor=#909090;fontColor=#1A1A1A;" vertex="1" parent="vqr1CVYGPzqRc5KKQp99-73">
          <mxGeometry x="60" width="250" height="30" as="geometry">
            <mxRectangle width="250" height="30" as="alternateBounds" />
          </mxGeometry>
        </mxCell>
        <mxCell id="vqr1CVYGPzqRc5KKQp99-76" value="" style="shape=tableRow;horizontal=0;startSize=0;swimlaneHead=0;swimlaneBody=0;fillColor=none;collapsible=0;dropTarget=0;points=[[0,0.5],[1,0.5]];portConstraint=eastwest;top=0;left=0;right=0;bottom=0;html=1;strokeColor=#909090;fontColor=#1A1A1A;" vertex="1" parent="vqr1CVYGPzqRc5KKQp99-27">
          <mxGeometry y="480" width="310" height="30" as="geometry" />
        </mxCell>
        <mxCell id="vqr1CVYGPzqRc5KKQp99-77" value="" style="shape=partialRectangle;connectable=0;fillColor=none;top=0;left=0;bottom=0;right=0;editable=1;overflow=hidden;html=1;whiteSpace=wrap;strokeColor=#909090;fontColor=#1A1A1A;" vertex="1" parent="vqr1CVYGPzqRc5KKQp99-76">
          <mxGeometry width="60" height="30" as="geometry">
            <mxRectangle width="60" height="30" as="alternateBounds" />
          </mxGeometry>
        </mxCell>
        <mxCell id="vqr1CVYGPzqRc5KKQp99-78" value="horaSemanal: varchar(50), NOT NULL" style="shape=partialRectangle;connectable=0;fillColor=none;top=0;left=0;bottom=0;right=0;align=left;spacingLeft=6;overflow=hidden;html=1;whiteSpace=wrap;strokeColor=#909090;fontColor=#1A1A1A;" vertex="1" parent="vqr1CVYGPzqRc5KKQp99-76">
          <mxGeometry x="60" width="250" height="30" as="geometry">
            <mxRectangle width="250" height="30" as="alternateBounds" />
          </mxGeometry>
        </mxCell>
        <mxCell id="vqr1CVYGPzqRc5KKQp99-81" value="" style="edgeStyle=entityRelationEdgeStyle;fontSize=12;html=1;endArrow=ERmany;startArrow=ERmany;rounded=0;strokeColor=#182E3E;fontColor=#1A1A1A;exitX=1;exitY=0.5;exitDx=0;exitDy=0;" edge="1" parent="2_BJ-WFRn-Au3hLawCN7-1" source="vqr1CVYGPzqRc5KKQp99-14" target="vqr1CVYGPzqRc5KKQp99-31">
          <mxGeometry width="100" height="100" relative="1" as="geometry">
            <mxPoint x="110" y="410" as="sourcePoint" />
            <mxPoint x="210" y="310" as="targetPoint" />
          </mxGeometry>
        </mxCell>
        <mxCell id="vqr1CVYGPzqRc5KKQp99-83" value="" style="edgeStyle=entityRelationEdgeStyle;fontSize=12;html=1;endArrow=ERmany;startArrow=ERmany;rounded=0;strokeColor=#182E3E;fontColor=#1A1A1A;entryX=0;entryY=0.5;entryDx=0;entryDy=0;exitX=1;exitY=0.5;exitDx=0;exitDy=0;" edge="1" parent="2_BJ-WFRn-Au3hLawCN7-1" source="vqr1CVYGPzqRc5KKQp99-43" target="vqr1CVYGPzqRc5KKQp99-1">
          <mxGeometry width="100" height="100" relative="1" as="geometry">
            <mxPoint x="680" y="280" as="sourcePoint" />
            <mxPoint x="800" y="310" as="targetPoint" />
          </mxGeometry>
        </mxCell>
        <mxCell id="vqr1CVYGPzqRc5KKQp99-97" value="Segmento" style="shape=table;startSize=30;container=1;collapsible=1;childLayout=tableLayout;fixedRows=1;rowLines=0;fontStyle=1;align=center;resizeLast=1;html=1;strokeColor=#909090;fontColor=#1A1A1A;fillColor=#F5AB50;" vertex="1" parent="2_BJ-WFRn-Au3hLawCN7-1">
          <mxGeometry x="-580" width="220" height="90" as="geometry" />
        </mxCell>
        <mxCell id="vqr1CVYGPzqRc5KKQp99-98" value="" style="shape=tableRow;horizontal=0;startSize=0;swimlaneHead=0;swimlaneBody=0;fillColor=none;collapsible=0;dropTarget=0;points=[[0,0.5],[1,0.5]];portConstraint=eastwest;top=0;left=0;right=0;bottom=1;strokeColor=#909090;fontColor=#1A1A1A;" vertex="1" parent="vqr1CVYGPzqRc5KKQp99-97">
          <mxGeometry y="30" width="220" height="30" as="geometry" />
        </mxCell>
        <mxCell id="vqr1CVYGPzqRc5KKQp99-99" value="PK" style="shape=partialRectangle;connectable=0;fillColor=none;top=0;left=0;bottom=0;right=0;fontStyle=1;overflow=hidden;whiteSpace=wrap;html=1;strokeColor=#909090;fontColor=#1A1A1A;" vertex="1" parent="vqr1CVYGPzqRc5KKQp99-98">
          <mxGeometry width="30" height="30" as="geometry">
            <mxRectangle width="30" height="30" as="alternateBounds" />
          </mxGeometry>
        </mxCell>
        <mxCell id="vqr1CVYGPzqRc5KKQp99-100" value="Id_segmento" style="shape=partialRectangle;connectable=0;fillColor=none;top=0;left=0;bottom=0;right=0;align=left;spacingLeft=6;fontStyle=5;overflow=hidden;whiteSpace=wrap;html=1;strokeColor=#909090;fontColor=#1A1A1A;" vertex="1" parent="vqr1CVYGPzqRc5KKQp99-98">
          <mxGeometry x="30" width="190" height="30" as="geometry">
            <mxRectangle width="190" height="30" as="alternateBounds" />
          </mxGeometry>
        </mxCell>
        <mxCell id="vqr1CVYGPzqRc5KKQp99-101" value="" style="shape=tableRow;horizontal=0;startSize=0;swimlaneHead=0;swimlaneBody=0;fillColor=none;collapsible=0;dropTarget=0;points=[[0,0.5],[1,0.5]];portConstraint=eastwest;top=0;left=0;right=0;bottom=0;strokeColor=#909090;fontColor=#1A1A1A;" vertex="1" parent="vqr1CVYGPzqRc5KKQp99-97">
          <mxGeometry y="60" width="220" height="30" as="geometry" />
        </mxCell>
        <mxCell id="vqr1CVYGPzqRc5KKQp99-102" value="" style="shape=partialRectangle;connectable=0;fillColor=none;top=0;left=0;bottom=0;right=0;editable=1;overflow=hidden;whiteSpace=wrap;html=1;strokeColor=#909090;fontColor=#1A1A1A;" vertex="1" parent="vqr1CVYGPzqRc5KKQp99-101">
          <mxGeometry width="30" height="30" as="geometry">
            <mxRectangle width="30" height="30" as="alternateBounds" />
          </mxGeometry>
        </mxCell>
        <mxCell id="vqr1CVYGPzqRc5KKQp99-103" value="nome: varchar(150), NOT NULL" style="shape=partialRectangle;connectable=0;fillColor=none;top=0;left=0;bottom=0;right=0;align=left;spacingLeft=6;overflow=hidden;whiteSpace=wrap;html=1;strokeColor=#909090;fontColor=#1A1A1A;" vertex="1" parent="vqr1CVYGPzqRc5KKQp99-101">
          <mxGeometry x="30" width="190" height="30" as="geometry">
            <mxRectangle width="190" height="30" as="alternateBounds" />
          </mxGeometry>
        </mxCell>
        <mxCell id="vqr1CVYGPzqRc5KKQp99-104" value="Cliente" style="shape=table;startSize=30;container=1;collapsible=1;childLayout=tableLayout;fixedRows=1;rowLines=0;fontStyle=1;align=center;resizeLast=1;html=1;strokeColor=#909090;fontColor=#1A1A1A;fillColor=#F5AB50;" vertex="1" parent="2_BJ-WFRn-Au3hLawCN7-1">
          <mxGeometry x="-720" y="-240" width="270" height="180" as="geometry" />
        </mxCell>
        <mxCell id="vqr1CVYGPzqRc5KKQp99-105" value="" style="shape=tableRow;horizontal=0;startSize=0;swimlaneHead=0;swimlaneBody=0;fillColor=none;collapsible=0;dropTarget=0;points=[[0,0.5],[1,0.5]];portConstraint=eastwest;top=0;left=0;right=0;bottom=1;strokeColor=#909090;fontColor=#1A1A1A;" vertex="1" parent="vqr1CVYGPzqRc5KKQp99-104">
          <mxGeometry y="30" width="270" height="30" as="geometry" />
        </mxCell>
        <mxCell id="vqr1CVYGPzqRc5KKQp99-106" value="PK" style="shape=partialRectangle;connectable=0;fillColor=none;top=0;left=0;bottom=0;right=0;fontStyle=1;overflow=hidden;whiteSpace=wrap;html=1;strokeColor=#909090;fontColor=#1A1A1A;" vertex="1" parent="vqr1CVYGPzqRc5KKQp99-105">
          <mxGeometry width="30" height="30" as="geometry">
            <mxRectangle width="30" height="30" as="alternateBounds" />
          </mxGeometry>
        </mxCell>
        <mxCell id="vqr1CVYGPzqRc5KKQp99-107" value="Id_cliente" style="shape=partialRectangle;connectable=0;fillColor=none;top=0;left=0;bottom=0;right=0;align=left;spacingLeft=6;fontStyle=5;overflow=hidden;whiteSpace=wrap;html=1;strokeColor=#909090;fontColor=#1A1A1A;" vertex="1" parent="vqr1CVYGPzqRc5KKQp99-105">
          <mxGeometry x="30" width="240" height="30" as="geometry">
            <mxRectangle width="240" height="30" as="alternateBounds" />
          </mxGeometry>
        </mxCell>
        <mxCell id="vqr1CVYGPzqRc5KKQp99-108" value="" style="shape=tableRow;horizontal=0;startSize=0;swimlaneHead=0;swimlaneBody=0;fillColor=none;collapsible=0;dropTarget=0;points=[[0,0.5],[1,0.5]];portConstraint=eastwest;top=0;left=0;right=0;bottom=0;strokeColor=#909090;fontColor=#1A1A1A;" vertex="1" parent="vqr1CVYGPzqRc5KKQp99-104">
          <mxGeometry y="60" width="270" height="30" as="geometry" />
        </mxCell>
        <mxCell id="vqr1CVYGPzqRc5KKQp99-109" value="" style="shape=partialRectangle;connectable=0;fillColor=none;top=0;left=0;bottom=0;right=0;editable=1;overflow=hidden;whiteSpace=wrap;html=1;strokeColor=#909090;fontColor=#1A1A1A;" vertex="1" parent="vqr1CVYGPzqRc5KKQp99-108">
          <mxGeometry width="30" height="30" as="geometry">
            <mxRectangle width="30" height="30" as="alternateBounds" />
          </mxGeometry>
        </mxCell>
        <mxCell id="vqr1CVYGPzqRc5KKQp99-110" value="nomeEmpresa: varchar(150), NOT NULL" style="shape=partialRectangle;connectable=0;fillColor=none;top=0;left=0;bottom=0;right=0;align=left;spacingLeft=6;overflow=hidden;whiteSpace=wrap;html=1;strokeColor=#909090;fontColor=#1A1A1A;" vertex="1" parent="vqr1CVYGPzqRc5KKQp99-108">
          <mxGeometry x="30" width="240" height="30" as="geometry">
            <mxRectangle width="240" height="30" as="alternateBounds" />
          </mxGeometry>
        </mxCell>
        <mxCell id="vqr1CVYGPzqRc5KKQp99-111" value="" style="shape=tableRow;horizontal=0;startSize=0;swimlaneHead=0;swimlaneBody=0;fillColor=none;collapsible=0;dropTarget=0;points=[[0,0.5],[1,0.5]];portConstraint=eastwest;top=0;left=0;right=0;bottom=0;strokeColor=#909090;fontColor=#1A1A1A;" vertex="1" parent="vqr1CVYGPzqRc5KKQp99-104">
          <mxGeometry y="90" width="270" height="30" as="geometry" />
        </mxCell>
        <mxCell id="vqr1CVYGPzqRc5KKQp99-112" value="" style="shape=partialRectangle;connectable=0;fillColor=none;top=0;left=0;bottom=0;right=0;editable=1;overflow=hidden;whiteSpace=wrap;html=1;strokeColor=#909090;fontColor=#1A1A1A;" vertex="1" parent="vqr1CVYGPzqRc5KKQp99-111">
          <mxGeometry width="30" height="30" as="geometry">
            <mxRectangle width="30" height="30" as="alternateBounds" />
          </mxGeometry>
        </mxCell>
        <mxCell id="vqr1CVYGPzqRc5KKQp99-113" value="nomeCliente: varchar(150), NOT NULL" style="shape=partialRectangle;connectable=0;fillColor=none;top=0;left=0;bottom=0;right=0;align=left;spacingLeft=6;overflow=hidden;whiteSpace=wrap;html=1;strokeColor=#909090;fontColor=#1A1A1A;" vertex="1" parent="vqr1CVYGPzqRc5KKQp99-111">
          <mxGeometry x="30" width="240" height="30" as="geometry">
            <mxRectangle width="240" height="30" as="alternateBounds" />
          </mxGeometry>
        </mxCell>
        <mxCell id="vqr1CVYGPzqRc5KKQp99-114" value="" style="shape=tableRow;horizontal=0;startSize=0;swimlaneHead=0;swimlaneBody=0;fillColor=none;collapsible=0;dropTarget=0;points=[[0,0.5],[1,0.5]];portConstraint=eastwest;top=0;left=0;right=0;bottom=0;strokeColor=#909090;fontColor=#1A1A1A;" vertex="1" parent="vqr1CVYGPzqRc5KKQp99-104">
          <mxGeometry y="120" width="270" height="30" as="geometry" />
        </mxCell>
        <mxCell id="vqr1CVYGPzqRc5KKQp99-115" value="" style="shape=partialRectangle;connectable=0;fillColor=none;top=0;left=0;bottom=0;right=0;editable=1;overflow=hidden;whiteSpace=wrap;html=1;strokeColor=#909090;fontColor=#1A1A1A;" vertex="1" parent="vqr1CVYGPzqRc5KKQp99-114">
          <mxGeometry width="30" height="30" as="geometry">
            <mxRectangle width="30" height="30" as="alternateBounds" />
          </mxGeometry>
        </mxCell>
        <mxCell id="vqr1CVYGPzqRc5KKQp99-116" value="telefone: varchar(20), NOT NULL" style="shape=partialRectangle;connectable=0;fillColor=none;top=0;left=0;bottom=0;right=0;align=left;spacingLeft=6;overflow=hidden;whiteSpace=wrap;html=1;strokeColor=#909090;fontColor=#1A1A1A;" vertex="1" parent="vqr1CVYGPzqRc5KKQp99-114">
          <mxGeometry x="30" width="240" height="30" as="geometry">
            <mxRectangle width="240" height="30" as="alternateBounds" />
          </mxGeometry>
        </mxCell>
        <mxCell id="vqr1CVYGPzqRc5KKQp99-117" value="" style="shape=tableRow;horizontal=0;startSize=0;swimlaneHead=0;swimlaneBody=0;fillColor=none;collapsible=0;dropTarget=0;points=[[0,0.5],[1,0.5]];portConstraint=eastwest;top=0;left=0;right=0;bottom=0;strokeColor=#909090;fontColor=#1A1A1A;" vertex="1" parent="vqr1CVYGPzqRc5KKQp99-104">
          <mxGeometry y="150" width="270" height="30" as="geometry" />
        </mxCell>
        <mxCell id="vqr1CVYGPzqRc5KKQp99-118" value="" style="shape=partialRectangle;connectable=0;fillColor=none;top=0;left=0;bottom=0;right=0;editable=1;overflow=hidden;whiteSpace=wrap;html=1;strokeColor=#909090;fontColor=#1A1A1A;" vertex="1" parent="vqr1CVYGPzqRc5KKQp99-117">
          <mxGeometry width="30" height="30" as="geometry">
            <mxRectangle width="30" height="30" as="alternateBounds" />
          </mxGeometry>
        </mxCell>
        <mxCell id="vqr1CVYGPzqRc5KKQp99-119" value="email: varchar(100), NOT NULL" style="shape=partialRectangle;connectable=0;fillColor=none;top=0;left=0;bottom=0;right=0;align=left;spacingLeft=6;overflow=hidden;whiteSpace=wrap;html=1;strokeColor=#909090;fontColor=#1A1A1A;" vertex="1" parent="vqr1CVYGPzqRc5KKQp99-117">
          <mxGeometry x="30" width="240" height="30" as="geometry">
            <mxRectangle width="240" height="30" as="alternateBounds" />
          </mxGeometry>
        </mxCell>
        <mxCell id="vqr1CVYGPzqRc5KKQp99-120" value="Demanda" style="shape=table;startSize=30;container=1;collapsible=1;childLayout=tableLayout;fixedRows=1;rowLines=0;fontStyle=1;align=center;resizeLast=1;html=1;whiteSpace=wrap;strokeColor=#909090;fontColor=#1A1A1A;fillColor=#F5AB50;" vertex="1" parent="2_BJ-WFRn-Au3hLawCN7-1">
          <mxGeometry x="-220" y="-180" width="290" height="420" as="geometry" />
        </mxCell>
        <mxCell id="vqr1CVYGPzqRc5KKQp99-121" value="" style="shape=tableRow;horizontal=0;startSize=0;swimlaneHead=0;swimlaneBody=0;fillColor=none;collapsible=0;dropTarget=0;points=[[0,0.5],[1,0.5]];portConstraint=eastwest;top=0;left=0;right=0;bottom=0;html=1;strokeColor=#909090;fontColor=#1A1A1A;" vertex="1" parent="vqr1CVYGPzqRc5KKQp99-120">
          <mxGeometry y="30" width="290" height="30" as="geometry" />
        </mxCell>
        <mxCell id="vqr1CVYGPzqRc5KKQp99-122" value="PK" style="shape=partialRectangle;connectable=0;fillColor=none;top=0;left=0;bottom=0;right=0;fontStyle=1;overflow=hidden;html=1;whiteSpace=wrap;strokeColor=#909090;fontColor=#1A1A1A;" vertex="1" parent="vqr1CVYGPzqRc5KKQp99-121">
          <mxGeometry width="60" height="30" as="geometry">
            <mxRectangle width="60" height="30" as="alternateBounds" />
          </mxGeometry>
        </mxCell>
        <mxCell id="vqr1CVYGPzqRc5KKQp99-123" value="Id_demanda" style="shape=partialRectangle;connectable=0;fillColor=none;top=0;left=0;bottom=0;right=0;align=left;spacingLeft=6;fontStyle=5;overflow=hidden;html=1;whiteSpace=wrap;strokeColor=#909090;fontColor=#1A1A1A;" vertex="1" parent="vqr1CVYGPzqRc5KKQp99-121">
          <mxGeometry x="60" width="230" height="30" as="geometry">
            <mxRectangle width="230" height="30" as="alternateBounds" />
          </mxGeometry>
        </mxCell>
        <mxCell id="vqr1CVYGPzqRc5KKQp99-133" value="" style="shape=tableRow;horizontal=0;startSize=0;swimlaneHead=0;swimlaneBody=0;fillColor=none;collapsible=0;dropTarget=0;points=[[0,0.5],[1,0.5]];portConstraint=eastwest;top=0;left=0;right=0;bottom=0;html=1;strokeColor=#909090;fontColor=#1A1A1A;" vertex="1" parent="vqr1CVYGPzqRc5KKQp99-120">
          <mxGeometry y="60" width="290" height="30" as="geometry" />
        </mxCell>
        <mxCell id="vqr1CVYGPzqRc5KKQp99-134" value="FK" style="shape=partialRectangle;connectable=0;fillColor=none;top=0;left=0;bottom=0;right=0;fontStyle=1;overflow=hidden;html=1;whiteSpace=wrap;strokeColor=#909090;fontColor=#1A1A1A;" vertex="1" parent="vqr1CVYGPzqRc5KKQp99-133">
          <mxGeometry width="60" height="30" as="geometry">
            <mxRectangle width="60" height="30" as="alternateBounds" />
          </mxGeometry>
        </mxCell>
        <mxCell id="vqr1CVYGPzqRc5KKQp99-135" value="Id_cliente" style="shape=partialRectangle;connectable=0;fillColor=none;top=0;left=0;bottom=0;right=0;align=left;spacingLeft=6;fontStyle=5;overflow=hidden;html=1;whiteSpace=wrap;strokeColor=#909090;fontColor=#1A1A1A;" vertex="1" parent="vqr1CVYGPzqRc5KKQp99-133">
          <mxGeometry x="60" width="230" height="30" as="geometry">
            <mxRectangle width="230" height="30" as="alternateBounds" />
          </mxGeometry>
        </mxCell>
        <mxCell id="vqr1CVYGPzqRc5KKQp99-124" value="" style="shape=tableRow;horizontal=0;startSize=0;swimlaneHead=0;swimlaneBody=0;fillColor=none;collapsible=0;dropTarget=0;points=[[0,0.5],[1,0.5]];portConstraint=eastwest;top=0;left=0;right=0;bottom=1;html=1;strokeColor=#909090;fontColor=#1A1A1A;" vertex="1" parent="vqr1CVYGPzqRc5KKQp99-120">
          <mxGeometry y="90" width="290" height="30" as="geometry" />
        </mxCell>
        <mxCell id="vqr1CVYGPzqRc5KKQp99-125" value="FK2" style="shape=partialRectangle;connectable=0;fillColor=none;top=0;left=0;bottom=0;right=0;fontStyle=1;overflow=hidden;html=1;whiteSpace=wrap;strokeColor=#909090;fontColor=#1A1A1A;" vertex="1" parent="vqr1CVYGPzqRc5KKQp99-124">
          <mxGeometry width="60" height="30" as="geometry">
            <mxRectangle width="60" height="30" as="alternateBounds" />
          </mxGeometry>
        </mxCell>
        <mxCell id="vqr1CVYGPzqRc5KKQp99-126" value="Id_segmento" style="shape=partialRectangle;connectable=0;fillColor=none;top=0;left=0;bottom=0;right=0;align=left;spacingLeft=6;fontStyle=5;overflow=hidden;html=1;whiteSpace=wrap;strokeColor=#909090;fontColor=#1A1A1A;" vertex="1" parent="vqr1CVYGPzqRc5KKQp99-124">
          <mxGeometry x="60" width="230" height="30" as="geometry">
            <mxRectangle width="230" height="30" as="alternateBounds" />
          </mxGeometry>
        </mxCell>
        <mxCell id="vqr1CVYGPzqRc5KKQp99-127" value="" style="shape=tableRow;horizontal=0;startSize=0;swimlaneHead=0;swimlaneBody=0;fillColor=none;collapsible=0;dropTarget=0;points=[[0,0.5],[1,0.5]];portConstraint=eastwest;top=0;left=0;right=0;bottom=0;html=1;strokeColor=#909090;fontColor=#1A1A1A;" vertex="1" parent="vqr1CVYGPzqRc5KKQp99-120">
          <mxGeometry y="120" width="290" height="30" as="geometry" />
        </mxCell>
        <mxCell id="vqr1CVYGPzqRc5KKQp99-128" value="" style="shape=partialRectangle;connectable=0;fillColor=none;top=0;left=0;bottom=0;right=0;editable=1;overflow=hidden;html=1;whiteSpace=wrap;strokeColor=#909090;fontColor=#1A1A1A;" vertex="1" parent="vqr1CVYGPzqRc5KKQp99-127">
          <mxGeometry width="60" height="30" as="geometry">
            <mxRectangle width="60" height="30" as="alternateBounds" />
          </mxGeometry>
        </mxCell>
        <mxCell id="vqr1CVYGPzqRc5KKQp99-129" value="titulo: varchar(150), NOT NULL" style="shape=partialRectangle;connectable=0;fillColor=none;top=0;left=0;bottom=0;right=0;align=left;spacingLeft=6;overflow=hidden;html=1;whiteSpace=wrap;strokeColor=#909090;fontColor=#1A1A1A;" vertex="1" parent="vqr1CVYGPzqRc5KKQp99-127">
          <mxGeometry x="60" width="230" height="30" as="geometry">
            <mxRectangle width="230" height="30" as="alternateBounds" />
          </mxGeometry>
        </mxCell>
        <mxCell id="vqr1CVYGPzqRc5KKQp99-130" value="" style="shape=tableRow;horizontal=0;startSize=0;swimlaneHead=0;swimlaneBody=0;fillColor=none;collapsible=0;dropTarget=0;points=[[0,0.5],[1,0.5]];portConstraint=eastwest;top=0;left=0;right=0;bottom=0;html=1;strokeColor=#909090;fontColor=#1A1A1A;" vertex="1" parent="vqr1CVYGPzqRc5KKQp99-120">
          <mxGeometry y="150" width="290" height="30" as="geometry" />
        </mxCell>
        <mxCell id="vqr1CVYGPzqRc5KKQp99-131" value="" style="shape=partialRectangle;connectable=0;fillColor=none;top=0;left=0;bottom=0;right=0;editable=1;overflow=hidden;html=1;whiteSpace=wrap;strokeColor=#909090;fontColor=#1A1A1A;" vertex="1" parent="vqr1CVYGPzqRc5KKQp99-130">
          <mxGeometry width="60" height="30" as="geometry">
            <mxRectangle width="60" height="30" as="alternateBounds" />
          </mxGeometry>
        </mxCell>
        <mxCell id="vqr1CVYGPzqRc5KKQp99-132" value="logo: image, NOT NULL" style="shape=partialRectangle;connectable=0;fillColor=none;top=0;left=0;bottom=0;right=0;align=left;spacingLeft=6;overflow=hidden;html=1;whiteSpace=wrap;strokeColor=#909090;fontColor=#1A1A1A;" vertex="1" parent="vqr1CVYGPzqRc5KKQp99-130">
          <mxGeometry x="60" width="230" height="30" as="geometry">
            <mxRectangle width="230" height="30" as="alternateBounds" />
          </mxGeometry>
        </mxCell>
        <mxCell id="vqr1CVYGPzqRc5KKQp99-139" value="" style="shape=tableRow;horizontal=0;startSize=0;swimlaneHead=0;swimlaneBody=0;fillColor=none;collapsible=0;dropTarget=0;points=[[0,0.5],[1,0.5]];portConstraint=eastwest;top=0;left=0;right=0;bottom=0;html=1;strokeColor=#909090;fontColor=#1A1A1A;" vertex="1" parent="vqr1CVYGPzqRc5KKQp99-120">
          <mxGeometry y="180" width="290" height="30" as="geometry" />
        </mxCell>
        <mxCell id="vqr1CVYGPzqRc5KKQp99-140" value="" style="shape=partialRectangle;connectable=0;fillColor=none;top=0;left=0;bottom=0;right=0;editable=1;overflow=hidden;html=1;whiteSpace=wrap;strokeColor=#909090;fontColor=#1A1A1A;" vertex="1" parent="vqr1CVYGPzqRc5KKQp99-139">
          <mxGeometry width="60" height="30" as="geometry">
            <mxRectangle width="60" height="30" as="alternateBounds" />
          </mxGeometry>
        </mxCell>
        <mxCell id="vqr1CVYGPzqRc5KKQp99-141" value="descricao: varchar(max), NOT NULL" style="shape=partialRectangle;connectable=0;fillColor=none;top=0;left=0;bottom=0;right=0;align=left;spacingLeft=6;overflow=hidden;html=1;whiteSpace=wrap;strokeColor=#909090;fontColor=#1A1A1A;" vertex="1" parent="vqr1CVYGPzqRc5KKQp99-139">
          <mxGeometry x="60" width="230" height="30" as="geometry">
            <mxRectangle width="230" height="30" as="alternateBounds" />
          </mxGeometry>
        </mxCell>
        <mxCell id="vqr1CVYGPzqRc5KKQp99-142" value="" style="shape=tableRow;horizontal=0;startSize=0;swimlaneHead=0;swimlaneBody=0;fillColor=none;collapsible=0;dropTarget=0;points=[[0,0.5],[1,0.5]];portConstraint=eastwest;top=0;left=0;right=0;bottom=0;html=1;strokeColor=#909090;fontColor=#1A1A1A;" vertex="1" parent="vqr1CVYGPzqRc5KKQp99-120">
          <mxGeometry y="210" width="290" height="30" as="geometry" />
        </mxCell>
        <mxCell id="vqr1CVYGPzqRc5KKQp99-143" value="" style="shape=partialRectangle;connectable=0;fillColor=none;top=0;left=0;bottom=0;right=0;editable=1;overflow=hidden;html=1;whiteSpace=wrap;strokeColor=#909090;fontColor=#1A1A1A;" vertex="1" parent="vqr1CVYGPzqRc5KKQp99-142">
          <mxGeometry width="60" height="30" as="geometry">
            <mxRectangle width="60" height="30" as="alternateBounds" />
          </mxGeometry>
        </mxCell>
        <mxCell id="vqr1CVYGPzqRc5KKQp99-144" value="anexo: file, NOT NULL" style="shape=partialRectangle;connectable=0;fillColor=none;top=0;left=0;bottom=0;right=0;align=left;spacingLeft=6;overflow=hidden;html=1;whiteSpace=wrap;strokeColor=#909090;fontColor=#1A1A1A;" vertex="1" parent="vqr1CVYGPzqRc5KKQp99-142">
          <mxGeometry x="60" width="230" height="30" as="geometry">
            <mxRectangle width="230" height="30" as="alternateBounds" />
          </mxGeometry>
        </mxCell>
        <mxCell id="vqr1CVYGPzqRc5KKQp99-145" value="" style="shape=tableRow;horizontal=0;startSize=0;swimlaneHead=0;swimlaneBody=0;fillColor=none;collapsible=0;dropTarget=0;points=[[0,0.5],[1,0.5]];portConstraint=eastwest;top=0;left=0;right=0;bottom=0;html=1;strokeColor=#909090;fontColor=#1A1A1A;" vertex="1" parent="vqr1CVYGPzqRc5KKQp99-120">
          <mxGeometry y="240" width="290" height="30" as="geometry" />
        </mxCell>
        <mxCell id="vqr1CVYGPzqRc5KKQp99-146" value="" style="shape=partialRectangle;connectable=0;fillColor=none;top=0;left=0;bottom=0;right=0;editable=1;overflow=hidden;html=1;whiteSpace=wrap;strokeColor=#909090;fontColor=#1A1A1A;" vertex="1" parent="vqr1CVYGPzqRc5KKQp99-145">
          <mxGeometry width="60" height="30" as="geometry">
            <mxRectangle width="60" height="30" as="alternateBounds" />
          </mxGeometry>
        </mxCell>
        <mxCell id="vqr1CVYGPzqRc5KKQp99-147" value="prioridade: varchar(100), NOT NULL" style="shape=partialRectangle;connectable=0;fillColor=none;top=0;left=0;bottom=0;right=0;align=left;spacingLeft=6;overflow=hidden;html=1;whiteSpace=wrap;strokeColor=#909090;fontColor=#1A1A1A;" vertex="1" parent="vqr1CVYGPzqRc5KKQp99-145">
          <mxGeometry x="60" width="230" height="30" as="geometry">
            <mxRectangle width="230" height="30" as="alternateBounds" />
          </mxGeometry>
        </mxCell>
        <mxCell id="vqr1CVYGPzqRc5KKQp99-148" value="" style="shape=tableRow;horizontal=0;startSize=0;swimlaneHead=0;swimlaneBody=0;fillColor=none;collapsible=0;dropTarget=0;points=[[0,0.5],[1,0.5]];portConstraint=eastwest;top=0;left=0;right=0;bottom=0;html=1;strokeColor=#909090;fontColor=#1A1A1A;" vertex="1" parent="vqr1CVYGPzqRc5KKQp99-120">
          <mxGeometry y="270" width="290" height="30" as="geometry" />
        </mxCell>
        <mxCell id="vqr1CVYGPzqRc5KKQp99-149" value="" style="shape=partialRectangle;connectable=0;fillColor=none;top=0;left=0;bottom=0;right=0;editable=1;overflow=hidden;html=1;whiteSpace=wrap;strokeColor=#909090;fontColor=#1A1A1A;" vertex="1" parent="vqr1CVYGPzqRc5KKQp99-148">
          <mxGeometry width="60" height="30" as="geometry">
            <mxRectangle width="60" height="30" as="alternateBounds" />
          </mxGeometry>
        </mxCell>
        <mxCell id="vqr1CVYGPzqRc5KKQp99-150" value="privacidade: varchar(100), NOT NULL" style="shape=partialRectangle;connectable=0;fillColor=none;top=0;left=0;bottom=0;right=0;align=left;spacingLeft=6;overflow=hidden;html=1;whiteSpace=wrap;strokeColor=#909090;fontColor=#1A1A1A;" vertex="1" parent="vqr1CVYGPzqRc5KKQp99-148">
          <mxGeometry x="60" width="230" height="30" as="geometry">
            <mxRectangle width="230" height="30" as="alternateBounds" />
          </mxGeometry>
        </mxCell>
        <mxCell id="vqr1CVYGPzqRc5KKQp99-151" value="" style="shape=tableRow;horizontal=0;startSize=0;swimlaneHead=0;swimlaneBody=0;fillColor=none;collapsible=0;dropTarget=0;points=[[0,0.5],[1,0.5]];portConstraint=eastwest;top=0;left=0;right=0;bottom=0;html=1;strokeColor=#909090;fontColor=#1A1A1A;" vertex="1" parent="vqr1CVYGPzqRc5KKQp99-120">
          <mxGeometry y="300" width="290" height="30" as="geometry" />
        </mxCell>
        <mxCell id="vqr1CVYGPzqRc5KKQp99-152" value="" style="shape=partialRectangle;connectable=0;fillColor=none;top=0;left=0;bottom=0;right=0;editable=1;overflow=hidden;html=1;whiteSpace=wrap;strokeColor=#909090;fontColor=#1A1A1A;" vertex="1" parent="vqr1CVYGPzqRc5KKQp99-151">
          <mxGeometry width="60" height="30" as="geometry">
            <mxRectangle width="60" height="30" as="alternateBounds" />
          </mxGeometry>
        </mxCell>
        <mxCell id="vqr1CVYGPzqRc5KKQp99-153" value="status: varchar(100), NOT NULL" style="shape=partialRectangle;connectable=0;fillColor=none;top=0;left=0;bottom=0;right=0;align=left;spacingLeft=6;overflow=hidden;html=1;whiteSpace=wrap;strokeColor=#909090;fontColor=#1A1A1A;" vertex="1" parent="vqr1CVYGPzqRc5KKQp99-151">
          <mxGeometry x="60" width="230" height="30" as="geometry">
            <mxRectangle width="230" height="30" as="alternateBounds" />
          </mxGeometry>
        </mxCell>
        <mxCell id="vqr1CVYGPzqRc5KKQp99-154" value="" style="shape=tableRow;horizontal=0;startSize=0;swimlaneHead=0;swimlaneBody=0;fillColor=none;collapsible=0;dropTarget=0;points=[[0,0.5],[1,0.5]];portConstraint=eastwest;top=0;left=0;right=0;bottom=0;html=1;strokeColor=#909090;fontColor=#1A1A1A;" vertex="1" parent="vqr1CVYGPzqRc5KKQp99-120">
          <mxGeometry y="330" width="290" height="30" as="geometry" />
        </mxCell>
        <mxCell id="vqr1CVYGPzqRc5KKQp99-155" value="" style="shape=partialRectangle;connectable=0;fillColor=none;top=0;left=0;bottom=0;right=0;editable=1;overflow=hidden;html=1;whiteSpace=wrap;strokeColor=#909090;fontColor=#1A1A1A;" vertex="1" parent="vqr1CVYGPzqRc5KKQp99-154">
          <mxGeometry width="60" height="30" as="geometry">
            <mxRectangle width="60" height="30" as="alternateBounds" />
          </mxGeometry>
        </mxCell>
        <mxCell id="vqr1CVYGPzqRc5KKQp99-156" value="dataInicial: date, NOT NULL" style="shape=partialRectangle;connectable=0;fillColor=none;top=0;left=0;bottom=0;right=0;align=left;spacingLeft=6;overflow=hidden;html=1;whiteSpace=wrap;strokeColor=#909090;fontColor=#1A1A1A;" vertex="1" parent="vqr1CVYGPzqRc5KKQp99-154">
          <mxGeometry x="60" width="230" height="30" as="geometry">
            <mxRectangle width="230" height="30" as="alternateBounds" />
          </mxGeometry>
        </mxCell>
        <mxCell id="vqr1CVYGPzqRc5KKQp99-157" value="" style="shape=tableRow;horizontal=0;startSize=0;swimlaneHead=0;swimlaneBody=0;fillColor=none;collapsible=0;dropTarget=0;points=[[0,0.5],[1,0.5]];portConstraint=eastwest;top=0;left=0;right=0;bottom=0;html=1;strokeColor=#909090;fontColor=#1A1A1A;" vertex="1" parent="vqr1CVYGPzqRc5KKQp99-120">
          <mxGeometry y="360" width="290" height="30" as="geometry" />
        </mxCell>
        <mxCell id="vqr1CVYGPzqRc5KKQp99-158" value="" style="shape=partialRectangle;connectable=0;fillColor=none;top=0;left=0;bottom=0;right=0;editable=1;overflow=hidden;html=1;whiteSpace=wrap;strokeColor=#909090;fontColor=#1A1A1A;" vertex="1" parent="vqr1CVYGPzqRc5KKQp99-157">
          <mxGeometry width="60" height="30" as="geometry">
            <mxRectangle width="60" height="30" as="alternateBounds" />
          </mxGeometry>
        </mxCell>
        <mxCell id="vqr1CVYGPzqRc5KKQp99-159" value="dataFinal: date, NOT NULL" style="shape=partialRectangle;connectable=0;fillColor=none;top=0;left=0;bottom=0;right=0;align=left;spacingLeft=6;overflow=hidden;html=1;whiteSpace=wrap;strokeColor=#909090;fontColor=#1A1A1A;" vertex="1" parent="vqr1CVYGPzqRc5KKQp99-157">
          <mxGeometry x="60" width="230" height="30" as="geometry">
            <mxRectangle width="230" height="30" as="alternateBounds" />
          </mxGeometry>
        </mxCell>
        <mxCell id="vqr1CVYGPzqRc5KKQp99-160" value="" style="shape=tableRow;horizontal=0;startSize=0;swimlaneHead=0;swimlaneBody=0;fillColor=none;collapsible=0;dropTarget=0;points=[[0,0.5],[1,0.5]];portConstraint=eastwest;top=0;left=0;right=0;bottom=0;html=1;strokeColor=#909090;fontColor=#1A1A1A;" vertex="1" parent="vqr1CVYGPzqRc5KKQp99-120">
          <mxGeometry y="390" width="290" height="30" as="geometry" />
        </mxCell>
        <mxCell id="vqr1CVYGPzqRc5KKQp99-161" value="" style="shape=partialRectangle;connectable=0;fillColor=none;top=0;left=0;bottom=0;right=0;editable=1;overflow=hidden;html=1;whiteSpace=wrap;strokeColor=#909090;fontColor=#1A1A1A;" vertex="1" parent="vqr1CVYGPzqRc5KKQp99-160">
          <mxGeometry width="60" height="30" as="geometry">
            <mxRectangle width="60" height="30" as="alternateBounds" />
          </mxGeometry>
        </mxCell>
        <mxCell id="vqr1CVYGPzqRc5KKQp99-162" value="custo: money, NOT NULL" style="shape=partialRectangle;connectable=0;fillColor=none;top=0;left=0;bottom=0;right=0;align=left;spacingLeft=6;overflow=hidden;html=1;whiteSpace=wrap;strokeColor=#909090;fontColor=#1A1A1A;" vertex="1" parent="vqr1CVYGPzqRc5KKQp99-160">
          <mxGeometry x="60" width="230" height="30" as="geometry">
            <mxRectangle width="230" height="30" as="alternateBounds" />
          </mxGeometry>
        </mxCell>
        <mxCell id="vqr1CVYGPzqRc5KKQp99-163" value="" style="edgeStyle=entityRelationEdgeStyle;fontSize=12;html=1;endArrow=ERmany;startArrow=ERmany;rounded=0;strokeColor=#182E3E;fontColor=#1A1A1A;exitX=1;exitY=0.5;exitDx=0;exitDy=0;entryX=0;entryY=0.5;entryDx=0;entryDy=0;" edge="1" parent="2_BJ-WFRn-Au3hLawCN7-1" source="vqr1CVYGPzqRc5KKQp99-121" target="vqr1CVYGPzqRc5KKQp99-136">
          <mxGeometry width="100" height="100" relative="1" as="geometry">
            <mxPoint x="20" y="30" as="sourcePoint" />
            <mxPoint x="120" y="-70" as="targetPoint" />
          </mxGeometry>
        </mxCell>
        <mxCell id="vqr1CVYGPzqRc5KKQp99-164" value="" style="edgeStyle=entityRelationEdgeStyle;fontSize=12;html=1;endArrow=ERmany;startArrow=ERmany;rounded=0;strokeColor=#182E3E;fontColor=#1A1A1A;entryX=0;entryY=0.5;entryDx=0;entryDy=0;exitX=1;exitY=0.5;exitDx=0;exitDy=0;" edge="1" parent="2_BJ-WFRn-Au3hLawCN7-1" source="vqr1CVYGPzqRc5KKQp99-98" target="vqr1CVYGPzqRc5KKQp99-124">
          <mxGeometry width="100" height="100" relative="1" as="geometry">
            <mxPoint x="-400" as="sourcePoint" />
            <mxPoint x="-300" y="-100" as="targetPoint" />
          </mxGeometry>
        </mxCell>
        <mxCell id="vqr1CVYGPzqRc5KKQp99-166" value="" style="edgeStyle=entityRelationEdgeStyle;fontSize=12;html=1;endArrow=ERoneToMany;rounded=0;strokeColor=#182E3E;fontColor=#1A1A1A;exitX=1;exitY=0.5;exitDx=0;exitDy=0;entryX=0;entryY=0.5;entryDx=0;entryDy=0;" edge="1" parent="2_BJ-WFRn-Au3hLawCN7-1" source="vqr1CVYGPzqRc5KKQp99-105" target="vqr1CVYGPzqRc5KKQp99-133">
          <mxGeometry width="100" height="100" relative="1" as="geometry">
            <mxPoint x="-400" y="-170" as="sourcePoint" />
            <mxPoint x="-300" y="-270" as="targetPoint" />
          </mxGeometry>
        </mxCell>
      </root>
    </mxGraphModel>
  </diagram>
</mxfile>
